# xmcd CD database file
#
# Track frame offsets:
#	150
#	23949
#	44428
#	64030
#	84020
#	102989
#	130677
#	153214
#	177488
#	200195
#
# Disc length: 3059 seconds
#
# Revision: 0
# Processed by: cddbd v1.5.2PL0 Copyright (c) Steve Scherf et al.
# Submitted via: CDex 1.51
#
DISCID=7f0bf10a
DTITLE=Max Leonidas - Pure Pleasure from Paris
DYEAR=1900
DGENRE=Jazz
TTITLE0=Much better now
TTITLE1=I like it
TTITLE2=Go slow
TTITLE3=Ewei
TTITLE4=It's just a feeling
TTITLE5=Face the shame
TTITLE6=Mopaya
TTITLE7=Free like a bird
TTITLE8=Because I enjoy it...
TTITLE9=Let go your mind
EXTD=
EXTT0=
EXTT1=
EXTT2=
EXTT3=
EXTT4=
EXTT5=
EXTT6=
EXTT7=
EXTT8=
EXTT9=
PLAYORDER=
